<?xml version="1.0" encoding="utf-8"?>
<!-- Generator: Adobe Illustrator 21.1.0, SVG Export Plug-In . SVG Version: 6.00 Build 0)  -->
<svg version="1.1" id="Layer_1" xmlns="http://www.w3.org/2000/svg" xmlns:xlink="http://www.w3.org/1999/xlink" x="0px" y="0px"
	 viewBox="0 0 512 512" style="enable-background:new 0 0 512 512;" xml:space="preserve">
<style type="text/css">
	.st0{fill:#F49939;}
	.st1{fill:#FFD110;}
	.st2{fill:#E5332A;}
	.st3{fill:#FFFFFF;}
	.st4{fill:#341812;}
</style>
<path class="st0" d="M202.2,310.2c-6.9-49.7-47.9-87.8-91.3-106.6c4.4-16.4,43-13.9,53.6-5.1c-3.8-14.6-3.5-25.8,1.1-39.2
	c7.9-2.1,22,14.6,27.7,20.4c1-12.3,9.4-21,17.7-28.6c3.8-3.5,10-13.8,14.9-13.7c0.5,11.2-5.8,21.6-0.7,32.6
	c11.5-13.4,32.4-27.8,50.3-31.6c-1,5.7-6.7,11.5-9,17.9c-5.7,15.8-10.3,31.8-10.7,48.6c-0.6,22.1,1.8,54.8,15.9,72.6L202.2,310.2z"
	/>
<path class="st0" d="M275.6,277.5c27.5-17.3,49.8-38.5,79.8-51.6c16.6-7.2,31-12.2,49-13.3c7.5-0.5,26.3,1.2,33.3,4.3
	c-8.8,0.4-11.8,6.1-19.5,9.3c14,2.6,34.4-0.2,44.2,12.4c-11.6-0.3-24.9,2.5-35.4,7.1c8,3.6,17.1,4,25.2,8.4
	c5.6,3,10.6,7.3,14.8,11.7c-4.5-0.4-9.8,0.1-14.2,1.1c-8.8,2-17.9,3.8-26.6,6.7c-18.1,5.9-33.9,14.5-50.3,24
	c-29.4,17-57.1,47.3-93.4,46.9L275.6,277.5z"/>
<path class="st0" d="M235.7,362.7c-35,20.9-69.5,16.8-108.7,14.9c-19.6-1-60.6-12.2-82.6-2.4c7.1-12.6,25.4-26.6,39.1-31.6
	c-6.6,0.4-27.9,3.9-34.6,4.3c6.6-13.4,19.7-21.7,31.2-21.7c-4.7-3-19.9-1.6-24.8-4.4c39.9-28.3,105.3-5,148.5-25L235.7,362.7z"/>
<path class="st1" d="M158.3,298.9c3.8-46.6,45.9-74.2,90-75.1c49.5-1,106.3,58.4,112,105.2c8,66.2-41.8,118.7-108.7,109.8
	C174.7,428.5,152.5,368.5,158.3,298.9z"/>
<path class="st2" d="M239.8,371.9c20.1-6.7,42.5-14.4,58.4-28.9c0.1,8.9-2,18.1-2.5,27.3c-0.2,4.7,1,21.7-3.6,22.8
	c-2.5,0.6-9-3.1-11.4-4c-4.8-1.8-9.6-3.7-14.3-5.8c-6.7-3-10-4-13.2-5.6C248.5,375.4,244.7,373.8,239.8,371.9L239.8,371.9z"/>
<g>
	<path class="st3" d="M176.5,365.6c0,0,20,0.3,39.5-8.2c11.2-4.9,0.5-53.2-28.4-47.9C157.9,315,163.9,357.7,176.5,365.6z"/>
	<path class="st4" d="M184.8,363.1c0,0,16,0.2,31.6-6.6c9-3.9,0.4-42.6-22.7-38.3C169.9,322.6,174.7,356.8,184.8,363.1z"/>
	<path class="st3" d="M209,331.3c0.6,3.2-1.7,6.3-5,6.9c-3.4,0.6-6.6-1.5-7.2-4.6c-0.6-3.2,1.7-6.3,5-6.9
		C205.2,326,208.4,328.1,209,331.3z"/>
</g>
<g>
	<path class="st3" d="M288.7,322.9c0,0,20,0.3,39.5-8.2c11.2-4.9,0.5-53.2-28.4-47.9C270.1,272.3,276.1,315,288.7,322.9z"/>
	<path class="st4" d="M297,320.4c0,0,16,0.2,31.6-6.6c9-3.9,0.4-42.6-22.7-38.3C282.1,279.8,286.9,314,297,320.4z"/>
	<path class="st3" d="M321.2,288.5c0.6,3.2-1.7,6.3-5,6.9c-3.4,0.6-6.6-1.5-7.2-4.6c-0.6-3.2,1.7-6.3,5-6.9
		C317.4,283.2,320.6,285.3,321.2,288.5z"/>
</g>
</svg>
