<?xml version="1.0" encoding="utf-8"?>
<!-- Generator: Adobe Illustrator 21.1.0, SVG Export Plug-In . SVG Version: 6.00 Build 0)  -->
<svg version="1.1" id="Layer_1" xmlns="http://www.w3.org/2000/svg" xmlns:xlink="http://www.w3.org/1999/xlink" x="0px" y="0px"
	 viewBox="0 0 512 512" style="enable-background:new 0 0 512 512;" xml:space="preserve">
<style type="text/css">
	.st0{fill:#F49939;}
	.st1{fill:#FFD110;}
	.st2{fill:#FFFFFF;}
	.st3{fill:#E5332A;}
</style>
<g>
	<g>
		<g>
			<path class="st0" d="M229.3,412.2c0.7,4-0.4,7.7-1,11.6c-0.7,4.4-1.1,8.8-1.8,13.2c-1.3,7.7-13.8,4.6-11.9-3.3
				c1-4.3,2.7-8.4,4.3-12.5c1.4-3.7,2.6-7.5,5.4-10.3C225.8,409.4,229,409.9,229.3,412.2L229.3,412.2z"/>
			<path class="st0" d="M229.8,451.9c-2.7-1.1-4.8-2.4-7.1-4.3c-2.5-2.2-4.5-4.9-6.3-7.6c-1.5-2.3-0.5-5.7,1.8-7
				c2.6-1.5,5.4-0.4,7,1.8c3.4,4.8,5.8,10.2,5.8,16.1C231.1,451.6,230.5,452.2,229.8,451.9L229.8,451.9z"/>
			<path class="st0" d="M205.1,442.4c3.6-3.5,6.6-7.9,10.7-10.8c4.5-3.1,9.1,3.6,5.7,7.3c-1.9,2.1-5,3.3-7.6,4.4
				c-2.5,1.1-5.2,1.1-7.9,1.3C204.9,444.7,204.3,443.2,205.1,442.4L205.1,442.4z"/>
			<path class="st0" d="M319.6,409.3c3.9-1,8,1.6,11.5,3.1c4.6,2.1,9.5,3.9,13.8,6.5c6.2,3.7,0.7,13.2-5.7,9.7
				c-4.4-2.4-8.4-5.8-12.5-8.7c-3.1-2.2-7.3-4.5-8.4-8.3C318,410.7,318.6,409.6,319.6,409.3L319.6,409.3z"/>
			<path class="st0" d="M357.5,423.9c-0.9,1.8-2.9,2.6-4.5,3.6c-1.9,1.2-2.7,2.6-4.6,3.8c-3.2,2.1-7.7,0-8.7-3.5c-1.1-4,2-7,5.7-7.5
				c1.8-0.2,3.3,0.3,5.4,0c2.1-0.4,3.9-0.8,5.8,0.1C357.9,420.9,358,422.7,357.5,423.9L357.5,423.9z"/>
			<path class="st0" d="M343.8,440.8c-1.4-2.2-2.2-4.5-3.1-6.9c-1.1-2.7-2.3-5.1-2.7-8.1c-0.7-7,10.2-8.1,12-1.6c0.8,3,0.3,6-0.1,9
				c-0.3,2.7-0.7,5-1.8,7.5C347.2,442.6,344.7,442.2,343.8,440.8L343.8,440.8z"/>
			<path class="st1" d="M194.7,416.4c-48.4-21.6-62.1-83.8-38.3-128c3.2-6.7,6.8-13.2,10.9-19.4c20.4-31.2,51.3-56.2,85.2-67.5
				c6-2.3,12.1-4.3,18.2-5.9c18.2-4.9,36.2-6.2,52-0.8c24.7,8.4,44.5,28.5,55.9,52c20.6,42.7,26,113.2-8.7,151.3
				c-9.7,10.6-21.9,17.7-35.5,22.1c-4.5,1.5-9.2,2.6-14.1,3.5c-6.4,0.4-12.9,0.8-19.4,1.1c-6.5,0.4-13,0.7-19.5,0.9
				c-22.9,0.8-47.5,0.8-70.5-4.5C205.2,420.1,199.7,418.4,194.7,416.4z"/>
			<path class="st2" d="M292.4,219.3c6.4-1.5,13.3-1.5,20,0.6c17.9,5.5,32.4,22.2,36.1,40.4c3.1,15.1-4.9,35.2-20.9,40.1
				c-27.3,8.3-68.5-19-64-49.9C266,234.5,278,222.8,292.4,219.3z"/>
			<path d="M335.3,236.9c6.1,5.2,11,12.6,11.2,20.6c0.3,8.1-5.2,16.5-13.1,17.8c-5,0.8-10-1.1-14.4-3.7c-5.1-3.1-9.7-7.1-13.3-11.9
				c-7.4-9.8-5.5-27.4,9.1-28.8C321.8,230.4,330,232.4,335.3,236.9z"/>
			<path class="st3" d="M385.1,247.9c0,0.7-0.4,1.4-0.9,2c-3.2,4.5-7.6,8-12.6,10.2c-2.6,1.2-6.2,1.7-7.9-0.7
				c-0.4-0.6-0.6-1.2-0.8-1.9c-1.5-4.9-6-21,1.5-22.6C368.9,234,385.2,243.5,385.1,247.9z"/>
			<path class="st0" d="M215.5,311.6c-11.1-2.2-23-2.9-33.3,1.8c-6,2.8-11.6,8.2-11.4,14.8c0.2,6.1,5.5,11.2,11.3,13.1
				c5.8,1.9,12.2,1.3,18.3,0.8c-7.9,1.5-15.4,5.2-21.5,10.5c-3.9,3.4-7.3,8.7-5.2,13.4c1.7,3.9,6.5,5.3,10.7,5.8
				c7.2,0.9,14.5,0.3,21.5-1.6c-6.7,3.8-14.3,9.2-13.9,16.9c0.3,6.3,6.3,11.2,12.5,12c6.2,0.8,12.4-1.5,18-4.3
				c18.3-9.5,40.8-31.2,42.5-53.2C266.6,322,229.7,314.4,215.5,311.6z"/>
			<path class="st1" d="M322.8,175.4c0.6-0.7,1.2-1.4,1.4-2.3c0.7-2.6-2.2-5-4.9-5.3c-4-0.3-7.7,2.2-9.9,5.6
				c-2.2,3.3-3,7.3-3.5,11.3c-0.9-8.1-6.4-15.6-13.9-18.8c-2.7-1.2-5.7-1.8-8.6-1.2c-2.9,0.6-5.5,2.8-6.2,5.6c-0.5,2,0,4,0.6,6
				c2.7,8.6,8.9,22.7,19.9,21.8C308.4,197.2,316.7,182.6,322.8,175.4z"/>
		</g>
		<path class="st1" d="M155.4,334.8c-11.9,4-25.6,1.3-37.1-2.9c3.8-6.6,7.6-13.1,11.4-19.7c1.2,1.2,2.2,2.6,3.2,4
			c6.4,9.4-6.3,22.1-15.8,15.8c-1.4-1-2.8-2-4-3.2c-4.2-4-4.5-11-0.9-15.4c4-5,9.6-5.4,15.2-3c9.8,4.2,20.5,7.2,29.5,13.1
			C161.5,326.4,160.5,333.1,155.4,334.8L155.4,334.8z"/>
		<path class="st1" d="M153.4,339.5c-2,4.6-5.5,7.8-9.5,10.7c-2,1.5-4.1,2.6-6.3,3.7c-1.8,0.9-7.2,5.2-3.6,0.4
			c0.4-2.9,0.8-5.8,1.1-8.8c0,0.1,0,0.2,0,0.3c0.7,4.7-0.4,10-5.1,12.5c-0.1,0-0.1,0.1-0.2,0.1c-6.1,3.2-15.2,0.8-16.7-6.8
			c-2.2-10.9,6.2-14.9,14.8-18.1c7-2.6,15.1-4.3,22.3-1.6C153.7,333.1,154.9,336.3,153.4,339.5L153.4,339.5z"/>
	</g>
	<path d="M354.5,83.8c-12.6-9.4-17-25.1-5.7-37.4c11.3-12.2,32.8-8.8,41.8,4.5c8.2,12.1-0.7,30.6-5.5,42.3
		c-5.4,13-12,26.3-12.4,40.6c-0.2,5.7,8.7,5.7,8.9,0c0.9-31.9,46.2-80.6,0-100.8c-16.2-7.1-34.5-1.2-43.9,13.6
		C327.2,62.9,336,81.1,350,91.5C354.6,94.9,359,87.2,354.5,83.8L354.5,83.8z"/>
	<circle cx="387.1" cy="166.8" r="14.5"/>
</g>
</svg>
