<?xml version="1.0" encoding="utf-8"?>
<!-- Generator: Adobe Illustrator 21.1.0, SVG Export Plug-In . SVG Version: 6.00 Build 0)  -->
<svg version="1.1" id="Layer_1" xmlns="http://www.w3.org/2000/svg" xmlns:xlink="http://www.w3.org/1999/xlink" x="0px" y="0px"
	 viewBox="0 0 512 512" style="enable-background:new 0 0 512 512;" xml:space="preserve">
<style type="text/css">
	.st0{fill:#F49939;}
	.st1{fill:#FFD110;}
	.st2{fill:#FFFFFF;}
	.st3{fill:#E5332A;}
	.st4{fill:#BB923E;}
	.st5{fill:#FAC48C;}
	.st6{fill:#FBD1A9;}
	.st7{fill:#D3AE5A;}
</style>
<g>
	<path class="st0" d="M338.7,179.1c0.9-2.5,2.4-5.1,4.9-5.6c2.8-0.6,5.5,2,6.2,4.8s-0.2,5.7-1,8.5c0.7-2,2.1-4.3,4.2-3.9
		c2.1,0.4,2.6,3.3,2.3,5.4c-0.5,3.9-1.9,7.6-4.1,10.8c-0.1-1.8,2.7-2.6,4.1-1.4s1.6,3.2,1.6,5.1c-0.1,11.6-6.1,23.4-16.3,28.9
		c-5,2.7-5.9-14.1-6.2-17.5C333.7,203.1,334.9,189.6,338.7,179.1z"/>
	<path class="st0" d="M168.2,178.3c-1.5-2.2-3.5-4.4-6.1-4.3c-2.9,0.1-4.9,3.2-4.9,6.1c0,2.9,1.5,5.5,2.9,8c-1.1-1.8-3.1-3.7-5-2.8
		c-2,0.9-1.8,3.8-1,5.8c1.4,3.6,3.7,6.9,6.5,9.6c-0.3-1.8-3.2-1.9-4.3-0.4s-0.8,3.5-0.3,5.3c2.9,11.2,11.5,21.2,22.7,24.2
		c5.5,1.4,2.4-15.1,1.8-18.4C178.8,200.4,174.5,187.6,168.2,178.3z"/>
	<g>
		<path class="st0" d="M210,257.5c-2.1,1.6-3.3,4.4-4.7,6.6c-1.5,2.4-3.3,4.7-4.7,7.2c-2.8,4.8,4.8,9.3,7.4,4.4
			c1.4-2.6,2.4-5.6,3.5-8.4c1-2.6,2.4-5.5,2.1-8.3C213.4,257.1,211.6,256.3,210,257.5L210,257.5z"/>
		<path class="st0" d="M191.9,278c3.8,1.5,8.2,1,12.1-0.1c4.4-1.2,2.8-8.1-1.7-7c-4,1-8.1,2.6-10.7,5.9
			C191.3,277.3,191.4,277.8,191.9,278L191.9,278z"/>
		<path class="st0" d="M209.3,284.4c-0.3-3.4,0-7-0.6-10.4c-0.7-3.6-6.8-3.1-6.5,0.7c0.3,4.2,2.6,7.6,5.5,10.4
			C208.2,285.5,209.3,285.2,209.3,284.4L209.3,284.4z"/>
		<path class="st0" d="M293.5,268.2c-2.3,1.5-2.7,5.1-3.3,7.7c-0.8,3.3-2,6.7-2.3,10.1c-0.2,2.1,0.7,4.2,2.9,4.7
			c2,0.5,4.4-0.8,4.7-2.9c0.6-3.5,0.5-7.2,0.7-10.8c0.1-2.8,0.8-6.3-1.1-8.6C294.8,267.9,294,267.9,293.5,268.2L293.5,268.2z"/>
		<path class="st0" d="M284.9,295.4c1.4,0.3,2.5-0.3,3.8-0.8s2.7-0.5,4-0.9c2.6-0.8,3.8-3.9,2.4-6.2c-1.4-2.3-4.7-2.6-6.6-0.6
			c-1,1-1.5,2.2-2.6,3.2c-1,0.9-2.1,1.7-2.4,3.1C283.3,294.1,283.9,295.2,284.9,295.4L284.9,295.4z"/>
		<path class="st0" d="M300.4,295.4c-0.6-1.7-1.4-3.1-2.3-4.6c-1-1.7-1.7-3.6-3.2-5c-3.5-3.2-9.4,1.3-6.5,5.4
			c1.3,1.9,3.2,2.9,5.1,4.1c1.6,1,3.1,1.8,5,2.3C299.6,297.8,300.8,296.6,300.4,295.4L300.4,295.4z"/>
		<path class="st1" d="M341.3,175.6c-2.3-15.8-8.3-29.8-17.6-41.4c-3.1-4.1-6.5-7.9-10.1-11.5c-7.3-7.1-15.5-13-24.1-17.5
			c-4.4-2.1-8.8-3.7-13.3-4.7c-40.6-9.3-85.3,23.3-103.1,63.8c-1.5,4.8-2.4,9.8-2.9,14.8c-0.5,5.6-0.4,11.4,0.2,17.1
			c0.6,5.7,1.8,11.3,3.5,16.8c15.5,45.4,59.2,80.9,104,68.2c10.3-2.4,19.8-6.4,27.7-13.5c3.5-2.4,6.8-5.1,9.8-8.3
			c3.4-3.3,6.6-6.8,9.6-10.7c5.9-7.6,11-16.2,15.1-25.2c1.4-4.1,2.9-9,3.6-13.9c0.7-6.5,0.6-13.1-0.1-19.5
			C343.2,185.1,342.4,180.2,341.3,175.6z"/>
		<path class="st2" d="M197.5,139.8c-3.6,2.9-6.6,6.7-8.3,11.3c-4.7,12.2-1.8,27.4,6.6,37.4c7,8.2,21.5,12.6,31.1,5.8
			c16.3-11.4,19.2-45.9,0.3-56.8C217.3,131.8,205.7,133.4,197.5,139.8z"/>
		<path d="M202.2,168.4c0.2,5.5,2.1,11.2,6.3,14.8c4.2,3.5,11.1,4.2,15.2,0.5c2.6-2.3,3.7-5.9,4.1-9.3c0.5-4.1,0.2-8.2-0.8-12.2
			c-2.1-8.2-12.4-14.6-19.4-7.3C204.4,158.3,202,163.6,202.2,168.4z"/>
		<path class="st2" d="M281,142.9c-3.6,2.9-6.6,6.7-8.3,11.3c-4.7,12.2-1.8,27.4,6.6,37.4c7,8.2,21.5,12.6,31.1,5.8
			c16.3-11.4,19.2-45.9,0.3-56.8C300.8,134.9,289.1,136.5,281,142.9z"/>
		<path d="M284.2,168.4c0.2,5.5,2.1,11.2,6.3,14.8c4.2,3.5,11.1,4.2,15.2,0.5c2.6-2.3,3.7-5.9,4.1-9.3c0.5-4.1,0.2-8.2-0.8-12.2
			c-2.1-8.2-12.4-14.6-19.4-7.3C286.4,158.3,284,163.6,284.2,168.4z"/>
		<path class="st3" d="M258.1,208.3c0.6-0.1,1.1-0.6,1.6-1c3.4-3.4,5.9-7.8,7-12.5c0.6-2.5,0.5-5.7-1.7-6.8
			c-0.6-0.3-1.2-0.4-1.8-0.5c-4.5-0.6-19.2-2.1-19.5,4.7C243.6,196.2,254.3,209.1,258.1,208.3z"/>
		<path class="st1" d="M245.7,108.1c-0.4-0.5-0.9-0.9-1.1-1.6c-0.6-1.8,1.3-3.6,3.2-3.9c2.7-0.4,5.5,1.2,7.2,3.4s2.4,5,3,7.7
			c0.3-5.7,3.8-11.2,8.8-13.8c1.8-0.9,3.9-1.5,6-1.2c2,0.3,4,1.7,4.6,3.6c0.4,1.4,0.2,2.8-0.2,4.2c-1.5,6.2-5.1,16.3-12.9,16.2
			C256.8,122.7,250.3,112.9,245.7,108.1z"/>
	</g>
</g>
<path class="st4" d="M451.3,381c-2.1,1.7-4.2,3.3-6.2,5c-5-7.2-13.8-11.7-22.6-11.4c-2.7,0.1-5.6,0.7-7.1,2.9
	c-1.5,2.2-0.4,6,2.2,6.1c-14.8,1.3-29.7,2.6-44.5,4c0,1.9,0,3.8,0.1,5.7c-13.3-2.9-26.8-5.9-40.3-4.8c-11.4,0.9-22.6,4.8-34.1,4.4
	c-13.4-0.5-28.3-6.3-39.3,1.4c-18.4-4.9-38.3-4.3-56.3,1.7c1.4-4.1-4.7-6.4-9.1-6.3c-12.4,0.5-24.7,2.5-36.5,6
	c1.6-3.5-3.4-6.3-7.2-6.9c-18.3-2.8-37.1-2.3-55.2,1.7c-4.7,0.4-3.8-7.4-6.4-11.3c-1.4-2.1-4.1-3-6.5-3.9
	c-11.6-4.2-21.9-11.8-29.5-21.5c10.5,2.3,21.3,0.4,32-0.2c22.2-1.2,44.4,3.4,66.6,4.8c51.2,3.2,102-10.5,153.3-12.1
	c38.3-1.2,77.1,4.4,114.7-2.7c10-1.9,28.3-7,36.3,2.4c3.3,3.9,2.6,8.6,1.8,13.3C456.6,363.7,454.9,378.1,451.3,381z"/>
<path class="st4" d="M52.6,302.5c8.4,5,15.6,12.3,21,21.1c-5.4-11.8-0.2-28.1,10.5-33.4c0.2,8.4,0.3,16.8,0.5,25.2
	c6.8-14.1,18.9-24.9,32.7-29.1c-4.8,9.3-10.7,17.9-17.6,25.5c5.5-4.8,12.6-7,19.5-6.1c-2.4,10-2,20.9,1.4,30.6
	c4.2-13.8,8.4-27.6,12.6-41.5c2.8,10.6,3.2,21.9,1.2,32.7c0.2-5.8,1.1-12.2,5.2-15.9c4-3.6,11.7-1.6,12,4.2c-0.4-6.6-0.4-13.3,0-20
	c3.4-1.5,5.7,4.1,5.9,8.2c0.7,12.3,0.9,24.6,0.6,36.8c3-14.9,13-27.7,25.8-32.9c-3.3,9-6.7,18.4-5.7,28.1
	c6.4-11.6,12.8-23.2,19.2-34.7c-1,13.5,4.1,27.5,13.4,36.2c-2.9-5.6,2.1-12.1,6.5-16.2c9.6-8.9,21.8-18.3,33.4-13.3
	c-5.5,3.9-9.7,10.2-11.4,17.3c5-6,10.4-11.6,16.1-16.7c1.2-1.1,2.6-2.2,4.1-1.8c1.9,0.5,2.7,3,3.2,5.1c2.1,9,6.4,19,14.5,20.7
	c0.3-8.1,0.6-16.2,0.9-24.3c0.1-2.3,0.6-5.1,2.5-5.6c1-0.2,2,0.3,2.9,0.9c6.5,4.4,10.1,13.4,8.9,21.8c1.9-9.1,7.2-17.3,14.3-22.1
	c3.3,3.4,1.1,9.4-0.8,14s-2.2,11.8,2.1,12.9c1.9,0.5,3.8-0.6,5.5-1.6c6.2-3.7,12.4-7.4,18.6-11.1c-0.5,6.8,5.2,13.4,11.2,13
	c-1.6-11.8,0.2-24.2,5.2-34.8c4.1,12.1,8.3,24.1,12.4,36.2c4-8.6,8-17.2,12-25.8c0.9-1.9,1.9-4,3.8-4.7c2.8-1.1,5.7,2,6.2,5.3
	c0.4,3.3-0.8,6.5-2.1,9.6c-2.4,5.7-4.7,11.5-7.1,17.2c13.1-11.3,24.2-25.5,32.5-41.6c2,11,2.6,22.3,2,33.6
	c1.9-8.4,3.8-16.9,5.8-25.3c0.5-2,1-4.1,2.2-5.6c3.9-4.7,11.6,1.1,11.7,7.5c0.1,6.5-4.2,11.8-8.3,16.4c5.2-7.8,13-13.3,21.5-15.2
	c0.1,11.6-5,23.1-13.3,29.9c5.8,1.4,11.3-2.6,17-4.3c5.7-1.7,13.8,1.1,13.5,7.8c-37.8,5.1-75.7,10.2-113.5,15.3
	c-47,6.3-94.2,12.7-141.6,11.5c-31.2-0.8-62.2-4.9-93.2-8.9c-11.7-1.5-33.9-1.4-43-11.2C58.7,334.8,56.2,313.9,52.6,302.5z"/>
<g>
	<path class="st5" d="M189.8,139.1c7.3,1,12.5,10.5,18.8,16.7c1-9.4,9.4-14.6,15.7-20.9c2.1,8.4,7.3,19.9,14.6,18.8
		c9.4-1,13.6-13.6,22-20.9c-1,2.1,1,4.2,2.1,5.2c8.4,6.3,18.8,9.4,23,19.9c2.1-9.4,9.4-19.9,16.7-20.9c8.4-1,18.8,9.4,23,18.8
		c4.8-7.8,11.6-13.5,19-18.1c-2.9-18.5-8.8-36.7-17.3-53.3c-2.8-4.6-5.9-9.1-9.2-13.2c-13.5-16.6-31.6-28.7-52.6-31.3
		c-6-0.7-12.2-0.7-18.7,0.3c-16.7,4.2-31.5,13.1-43.7,25c-4.1,4-7.9,8.3-11.4,12.8c-15.4,19.4-25,44.5-27.3,70.1
		C172.6,142.8,180.3,136.8,189.8,139.1z"/>
	<path class="st5" d="M325.8,253.9c-4.2-9.4-14.6-19.9-23-18.8c-7.3,1-14.6,11.5-16.7,20.9c-4.2-10.5-14.6-13.6-23-19.9
		c-1-1-3.1-3.1-2.1-5.2c-8.4,7.3-12.5,19.9-22,20.9c-7.3,1-12.5-10.5-14.6-18.8c-6.3,6.3-14.6,11.5-15.7,20.9
		c-6.3-6.3-11.5-15.7-18.8-16.7c-9.5-2.4-17.2,3.6-25.3,8.9c-3.6,39.9,10.3,80.8,46.9,102.6c3.1,1.9,6.3,3.7,9.6,5.2
		c6.6,3,13.5,5.2,20.4,6.2c18,2.6,36.5,0.9,53.7-4.8c4.5-1.5,8.5-3.2,12.2-5.2c3.6-2,6.9-4.3,9.8-7c6.3-5.9,11.5-12.8,15.1-20.3
		c1.8-3.4,3.4-6.9,4.8-10.4c9.7-24.3,11.6-50.9,7.6-76.7C337.4,240.4,330.5,246.1,325.8,253.9z"/>
	<path class="st6" d="M189.8,139.1c7.3,1,12.5,10.5,18.8,16.7c1-9.4,9.4-14.6,15.7-20.9c2.1,8.4,7.3,19.9,14.6,18.8
		c9.4-1,13.6-13.6,22-20.9c-1,2.1,1,4.2,2.1,5.2c8.4,6.3,18.8,9.4,23,19.9c2.1-9.4,9.4-19.9,16.7-20.9c8.4-1,18.8,9.4,23,18.8
		c3.9-6.3,9.1-11.2,14.9-15.4c-1.3-23.3-8.9-46.5-21.8-64.9c-3.1-4.3-6.5-8.3-10.2-12c-11-11.1-24.4-19.3-39.6-22.4
		c-5.8-1.2-11.8-1.7-18.1-1.3c-5.7,0.7-11.3,2.4-16.6,5.3c-5.1,2.1-9.9,4.9-14.2,8.2c-3.3,4-6.5,8.2-9.5,12.5s-5.8,8.9-8.5,13.5
		c-11.2,17-18.1,38.2-19.7,59.6C184.8,138.5,187.3,138.5,189.8,139.1z"/>
	<path class="st6" d="M325.8,253.9c-4.2-9.4-14.6-19.9-23-18.8c-7.3,1-14.6,11.5-16.7,20.9c-4.2-10.5-14.6-13.6-23-19.9
		c-1-1-3.1-3.1-2.1-5.2c-8.4,7.3-12.5,19.9-22,20.9c-7.3,1-12.5-10.5-14.6-18.8c-6.3,6.3-14.6,11.5-15.7,20.9
		c-6.3-6.3-11.5-15.7-18.8-16.7c-2.6-0.6-5-0.7-7.3-0.3c-2.9,39.3,12.2,79,52,94c5.3,2.2,10.7,3.7,16.3,4.5c4.3,0,7.8,1.7,11.8,1.2
		c3.9,0.2,7.9,0.1,11.8-0.3s7.8-1.1,11.5-2.2c5-1.4,9.8-3.5,14.4-6.2c30-19.4,42.2-54.5,40.3-89.5
		C334.9,242.6,329.6,247.6,325.8,253.9z"/>
</g>
<path class="st7" d="M272.3,348.7c-4.1-11.7-18.2-16.7-29.5-15c-7.9,1.2-4.7,13.7,3.3,12.1c8.7-1.7,14.7,1.7,21.6,6.4
	C269.9,353.8,273.1,351.2,272.3,348.7L272.3,348.7z"/>
<path class="st7" d="M500.9,368.8c-6.7-9.6-13.5-19.1-20.2-28.7c-4.1-5.8-8.3-11.7-14.2-16.1c-3-2.2-6.5-4.1-10.3-5.2
	c3.2-1.7,5.8-3.9,3.9-5.9c-4.5-4.8-14.7,0.6-19.5,2.7c-0.4,0.2-0.7,0.4-1.1,0.5c0.6-1.1,1.1-2.2,1.6-3.3c0.4-0.9,0.3-1.9,0-2.8
	c1.5-0.9,2.9-1.9,3.6-3.6c0.2-0.3,0.1-0.8-0.2-0.9c-5.8-3.2-15.4,3.8-19.8,7.1c-1.3,1-2.5,2-3.7,3.1c-1.7-0.9-3.5-1.6-5.3-2.2
	c0.6,1.9,1.2,3.8,1.8,5.6c-3.6,3.9-6.7,8.3-9.2,13.1c-0.4,0.8-0.6,1.5-0.5,2.2c-17.6-1-35.4,1.2-53,3.4
	c11.1-5.2,22.3-10.3,33.4-15.5c-24.7-0.6-52.5-0.2-70,14.5c9.1-7.4,15.3-17.3,17.5-27.7c-16.5,4.6-29.3,17.5-31.7,32
	c-6.7-11.5-17.7-21.1-31.1-27.2c-3.6,9-3.7,18.9-0.4,27.9c-9.6-5.5-22.1-7.2-33.3-4.4c1.3-10.5,7.4-20.6,16.7-27.7
	c-19.8,1.5-38.7,10.4-50.7,23.8c6.2-9.2,10.8-19.2,13.5-29.6c-17.5,7.4-29.9,22.8-31.6,39.3c-8.6-11.5-20.1-21.5-33.6-28.9
	c5.2,10.1,7.7,21.2,7.4,32.2c-9.2-5.6-21-8-32.2-6.6c4.2-6.5,8.4-13,12.6-19.5c-16-1-32.3,4.7-42.8,14.9c1.5-7.8,3-15.7,4.5-23.5
	c-12.1,3.7-21.3,13.4-23.1,24.1c-0.5-0.4-1-0.8-1.5-1.2c-0.4-1.2-1-2.4-2.2-3.6c-6.3-6.5-13.4-12.2-21.1-16.8
	c-5.8-3.4-15.4-9.7-22.3-8.1c-1.6,0.4-2.3,2.3-1.5,3.7c1.7,2.9,4.3,4.1,7.1,5.9c3.4,2.3,6.7,4.8,9.8,7.5c0.4,0.4,0.8,0.8,1.3,1.2
	c-8-0.5-16,0.6-23.3,3.5c12.3,0.5,23.9,6.8,29.7,15.9c-16.3-1.1-33.1,2.9-46.1,11.3c17.2-1.8,34.7-1.9,52-0.1
	c-5.8,1.5-11.4,3.8-16.2,7c11.4,1.7,23,2.2,34.5,1.5c-14.9,5.6-28.9,12.8-41.7,21.2c16.5,0.4,32.3-8.2,48.6-6.3
	c6.6,0.8,13,3.3,19.7,2.7c6.6-0.5,13.4-6.3,10.5-11.3c17.6,3.2,34.1,10.2,47.6,20.2c6.5-14,28.8-20.8,44.5-13.6
	c-0.2-4.6,5.2-8.7,10.6-8.1c5.4,0.6,9.3,5.8,7.6,10.1c-1.1,3.1-4.5,5.9-3.4,9c18-4.6,35.1-11.4,50.8-20.2
	c5.8,8.3,11.6,16.6,17.4,24.9c0.7,1,1.4,2,2.7,2.5c1.4,0.5,3,0.2,4.4-0.2c8.3-2.3,15-7.7,22.9-10.9c7.9-3.2,19-3.5,23.9,2.6
	c8.5-6.9,16.9-13.7,25.4-20.6c-1.9,8.1-0.1,16.8,4.9,24c6.5-13,18.9-23.8,34-29.7c2,8,1.5,16.4-1.6,24.1c14.4-4.9,26.8-14,34.5-25.3
	c3.4,7.2,3.5,15.5,0.4,22.8c12-5.9,25.8-15,23-26.4C479,357.6,490.7,362.3,500.9,368.8z M420.4,328.6c-0.4,0.4-0.9,0.8-1.3,1.2
	c0.4-0.6,0.7-1.2,1.1-1.7C420.3,328.3,420.4,328.5,420.4,328.6z M416.9,333.7c0,0.5,0,1,0.1,1.5c-0.3,0-0.5-0.1-0.8-0.1
	C416.4,334.7,416.6,334.2,416.9,333.7z"/>
</svg>
