<?xml version="1.0" encoding="utf-8"?>
<!-- Generator: Adobe Illustrator 21.1.0, SVG Export Plug-In . SVG Version: 6.00 Build 0)  -->
<svg version="1.1" id="Layer_1" xmlns="http://www.w3.org/2000/svg" xmlns:xlink="http://www.w3.org/1999/xlink" x="0px" y="0px"
	 viewBox="0 0 1280 512" style="enable-background:new 0 0 1280 512;" xml:space="preserve">
<style type="text/css">
	.st0{fill:#C91717;}
	.st1{fill:#F44336;}
	.st2{fill:#C1B49A;}
	.st3{fill:#FFFFFF;}
	.st4{fill:#F9E710;}
	.st5{fill:#404041;}
	.st6{fill:none;stroke:#FFFFFF;stroke-width:10;stroke-miterlimit:10;}
	.st7{enable-background:new    ;}
	.st8{fill:#3B4447;}
</style>
<g>
	<g>
		<g>
			<path class="st0" d="M252.6,91.2c0,0-42.1,16.8-85-13.8c0,0-4.8,8.3,6.3,18.4c0,0,0.7,9.8,6,11c0,0-0.7,10.4,6.7,11.4
				c0,0-3,7.5,7.1,14C203.7,138.7,250.7,112.1,252.6,91.2z"/>
			<path class="st0" d="M174.6,92.1c0,0,42.1,16.8,85-13.8c0,0,4.8,8.3-6.3,18.4c0,0-0.7,9.8-6,11c0,0,0.7,10.4-6.7,11.4
				c0,0,3,7.5-7.1,14C223.4,139.6,176.4,113.1,174.6,92.1z"/>
		</g>
	</g>
	<path class="st1" d="M209.8,105c-72.3,0-150.3,59.3-134.7,175.2C87.8,374.7,130.4,434,209.8,434s122-59.2,134.7-153.8
		C360.1,164.2,282.1,105,209.8,105z"/>
	<path class="st2" d="M210.6,268.3c-80,0-92.4,75.6-93.9,111.2c22.3,27.9,53.2,43.4,93.9,43.4s71.7-15.6,93.9-43.4
		C303.1,343.9,290.6,268.3,210.6,268.3z"/>
	<circle class="st0" cx="139.7" cy="194.5" r="70.9"/>
	<circle class="st3" cx="140.4" cy="194.5" r="52.8"/>
	<circle class="st0" cx="281.5" cy="194.5" r="70.9"/>
	<circle class="st3" cx="280.8" cy="194.5" r="52.8"/>
	<polygon class="st4" points="210.6,220.6 193.9,237.8 210.6,262.1 227.3,237.8 	"/>
	<path class="st0" d="M154.5,400.4c-8.8,0-16.4,11.7-16.4,22.6c0,10.9,9.4,8.8,11.1,5.3c0,0,0.2,6.3,5.3,6.3s5.3-6.3,5.3-6.3
		c1.6,3.5,11.1,5.6,11.1-5.3C171,412,163.3,400.4,154.5,400.4z"/>
	<path class="st0" d="M266.6,400.4c-8.8,0-16.4,11.7-16.4,22.6c0,10.9,9.4,8.8,11.1,5.3c0,0,0.2,6.3,5.3,6.3s5.3-6.3,5.3-6.3
		c1.6,3.5,11.1,5.6,11.1-5.3C283,412,275.4,400.4,266.6,400.4z"/>
	<circle class="st3" cx="132.8" cy="177.5" r="10.1"/>
	<circle class="st3" cx="153" cy="213.3" r="4.5"/>
	<g>
		<circle class="st5" cx="140.4" cy="194.5" r="28"/>
		<circle class="st3" cx="132.8" cy="176.6" r="10.1"/>
		<circle class="st3" cx="153" cy="212.5" r="4.5"/>
	</g>
	<path class="st5" d="M297,168.6c0,0-33.3,6-38.6,41.7c0,0,27.1-1,45.5,10.1l3.8-14.6c0,0-22.9-10.5-38.8-2.9
		c0,0,8.9-18.8,31.2-18.3L297,168.6z"/>
	<path class="st0" d="M321.1,291.4c-23.3-25.2,34.5-69.8,79.6-77.3C400.7,214.1,366.1,340.2,321.1,291.4z"/>
	<path class="st0" d="M87.2,270.2c-25.8-3.5-44.2,21.5-39,56.7c5.2,35.2,64.3,45.9,64.3,45.9s-14.3-16.2-16.4-31.6
		c-2.1-15.4,7.5-23.6,10.2-37.5C110.7,281.7,100.2,271.9,87.2,270.2z"/>
	<g>
		<polyline class="st6" points="234.9,337.4 250.2,352.7 234.9,368.1 		"/>
		<polyline class="st6" points="187.1,368.1 171.7,352.7 187.1,337.4 		"/>
		<line class="st6" x1="226.7" y1="336.2" x2="196" y2="369.9"/>
	</g>
</g>
<g class="st7">
	<path class="st8" d="M502.1,311.9c-10.5-6-18.5-14.5-24.1-25.5c-5.6-11-8.4-23.9-8.4-38.7c0-14.7,2.8-27.5,8.4-38.5
		c5.6-11,13.6-19.5,24.1-25.4c10.5-5.9,22.7-8.9,36.7-8.9c9.6,0,18.6,1.5,27.1,4.5c8.5,3,15.5,7.2,21.1,12.5l-8.4,18.8
		c-6.4-5.2-12.8-9-19.1-11.3c-6.3-2.3-13.1-3.5-20.3-3.5c-13.7,0-24.4,4.5-31.9,13.4c-7.5,8.9-11.3,21.7-11.3,38.4
		c0,16.8,3.7,29.7,11.2,38.7c7.5,9,18.1,13.5,32,13.5c7.2,0,14-1.2,20.3-3.5c6.3-2.3,12.7-6.1,19.1-11.3l8.4,18.8
		c-5.6,5.3-12.6,9.5-21.1,12.5c-8.5,3-17.5,4.5-27.1,4.5C524.8,320.9,512.6,317.9,502.1,311.9z"/>
	<path class="st8" d="M701.2,218.1l-47,107.8c-5.3,12.5-12.1,21.7-20.4,27.4c-8.3,5.7-18.5,9.5-30.6,11.4l-5.6-19.2
		c9.5-2.1,16.6-4.8,21.3-8.1c4.7-3.3,8.6-8.1,11.5-14.5l3.2-7.4l-42-97.4h26.2l29,72.6l29.6-72.6H701.2z"/>
	<path class="st8" d="M795.1,222c6.7,4.3,12,10.4,15.7,18.3c3.7,7.9,5.6,17,5.6,27.4c0,10.4-1.9,19.6-5.7,27.7
		c-3.8,8.1-9.1,14.3-15.8,18.7c-6.7,4.4-14.4,6.6-23.1,6.6c-7.5,0-14.1-1.6-19.9-4.8s-10.2-7.7-13.1-13.4v16.6h-24.6V171.9H739v61.4
		c3.1-5.6,7.5-10,13.2-13.1c5.7-3.1,12.3-4.7,19.6-4.7C780.6,215.5,788.4,217.7,795.1,222z M784.4,292.3c4.5-5.9,6.8-14.1,6.8-24.6
		c0-10.4-2.3-18.4-6.8-24.1c-4.5-5.7-11-8.5-19.4-8.5c-8.4,0-14.9,2.9-19.4,8.6c-4.5,5.7-6.8,13.9-6.8,24.4
		c0,10.7,2.3,18.8,6.8,24.5c4.5,5.7,11.1,8.5,19.6,8.5C773.5,301.1,779.9,298.2,784.4,292.3z"/>
	<path class="st8" d="M836.6,172.3h27.8v24.6h-27.8V172.3z M838.2,319.1v-101H863v101H838.2z"/>
	<path class="st8" d="M954.8,217.3l-0.2,22.8c-4.3-1.7-8.7-2.6-13.2-2.6c-8.5,0-15,2.5-19.5,7.4c-4.5,4.9-6.7,11.5-6.7,19.6v54.6
		h-24.8v-72.4c0-10.7-0.5-20.2-1.6-28.6h23.4l2,17.8c2.5-6.5,6.5-11.5,12-15c5.5-3.5,11.7-5.2,18.6-5.2
		C948.7,215.7,952,216.2,954.8,217.3z"/>
	<path class="st8" d="M961.2,307.9l7-17.6c10.8,8,23.1,12,37,12c6,0,10.6-1,13.9-3c3.3-2,4.9-4.8,4.9-8.4c0-3.1-1.1-5.5-3.4-7.3
		c-2.3-1.8-6.1-3.4-11.6-4.7l-16.8-3.8c-18.4-4-27.6-13.4-27.6-28.2c0-6.1,1.7-11.6,5.2-16.3c3.5-4.7,8.3-8.4,14.6-11.1
		c6.3-2.7,13.5-4,21.8-4c7.2,0,14.1,1.1,20.8,3.3c6.7,2.2,12.5,5.4,17.6,9.5l-7.4,17c-10.1-7.5-20.5-11.2-31.2-11.2
		c-5.7,0-10.2,1.1-13.4,3.2c-3.2,2.1-4.8,5.1-4.8,8.8c0,2.9,1,5.3,2.9,7c1.9,1.7,5.2,3.2,9.9,4.4l17.2,3.8
		c10,2.3,17.3,5.8,21.9,10.5c4.6,4.7,6.9,10.9,6.9,18.5c0,9.3-3.7,16.7-11.2,22.2c-7.5,5.5-17.7,8.2-30.6,8.2
		C986.5,320.7,972,316.4,961.2,307.9z"/>
	<path class="st8" d="M1098.8,236.9v45.2c0,11.9,5.5,17.8,16.6,17.8c3.1,0,6.4-0.5,10-1.6v19.8c-4.4,1.6-9.7,2.4-16,2.4
		c-11.5,0-20.3-3.2-26.4-9.6c-6.1-6.4-9.2-15.6-9.2-27.6v-46.4h-19.4v-18.8h19.4v-24.6l25-8.4v33h26.8v18.8H1098.8z"/>
</g>
</svg>
