<?xml version="1.0" encoding="utf-8"?>
<!-- Generator: Adobe Illustrator 21.1.0, SVG Export Plug-In . SVG Version: 6.00 Build 0)  -->
<svg version="1.1" id="Layer_1" xmlns="http://www.w3.org/2000/svg" xmlns:xlink="http://www.w3.org/1999/xlink" x="0px" y="0px"
	 viewBox="0 0 512 512" style="enable-background:new 0 0 512 512;" xml:space="preserve">
<style type="text/css">
	.st0{clip-path:url(#SVGID_2_);}
	.st1{fill:#C91717;}
	.st2{fill:#F44336;}
	.st3{fill:#C1B49A;}
	.st4{fill:#FFFFFF;}
	.st5{fill:#F9E710;}
	.st6{fill:#404041;}
	.st7{fill:none;stroke:#FFFFFF;stroke-width:10;stroke-miterlimit:10;}
</style>
<g>
	<defs>
		<circle id="SVGID_1_" cx="256" cy="256" r="216.1"/>
	</defs>
	<clipPath id="SVGID_2_">
		<use xlink:href="#SVGID_1_"  style="overflow:visible;"/>
	</clipPath>
	<g class="st0">
		<g>
			<g>
				<path class="st1" d="M312,82.3c0,0-53.1,21.2-107.1-17.4c0,0-6.1,10.4,8,23.2c0,0,0.9,12.4,7.5,13.9c0,0-0.9,13.1,8.5,14.4
					c0,0-3.8,9.5,8.9,17.6C250.3,142.3,309.5,108.8,312,82.3z"/>
				<path class="st1" d="M213.6,83.5c0,0,53.1,21.2,107.1-17.4c0,0,6.1,10.4-8,23.2c0,0-0.9,12.4-7.5,13.9c0,0,0.9,13.1-8.5,14.4
					c0,0,3.8,9.5-8.9,17.6C275.1,143.4,215.9,110,213.6,83.5z"/>
			</g>
		</g>
		<path class="st2" d="M258,99.8c-91.1,0-189.4,74.7-169.7,220.8c16,119.1,69.7,193.8,169.7,193.8c100.1,0,153.7-74.6,169.7-193.8
			C447.5,174.4,349.2,99.8,258,99.8z"/>
		<path class="st3" d="M259,305.5c-100.8,0-116.5,95.3-118.3,140.1c28.1,35.1,67.1,54.7,118.3,54.7s90.3-19.6,118.3-54.7
			C375.5,400.8,359.8,305.5,259,305.5z"/>
		<circle class="st1" cx="169.6" cy="212.6" r="89.3"/>
		<circle class="st4" cx="170.6" cy="212.6" r="66.6"/>
		<circle class="st1" cx="348.4" cy="212.6" r="89.3"/>
		<circle class="st4" cx="347.5" cy="212.6" r="66.6"/>
		<polygon class="st5" points="259,245.4 237.9,267.1 259,297.8 280,267.1 		"/>
		<path class="st1" d="M188.3,472c-11.1,0-20.7,14.7-20.7,28.5c0,13.7,11.9,11.1,14,6.7c0,0,0.3,8,6.7,8s6.7-8,6.7-8
			c2,4.4,14,7,14-6.7C209.1,486.8,199.4,472,188.3,472z"/>
		<path class="st1" d="M329.7,472c-11.1,0-20.7,14.7-20.7,28.5c0,13.7,11.9,11.1,14,6.7c0,0,0.3,8,6.7,8c6.4,0,6.7-8,6.7-8
			c2,4.4,14,7,14-6.7C350.3,486.8,340.7,472,329.7,472z"/>
		<circle class="st4" cx="160.9" cy="191.1" r="12.7"/>
		<circle class="st4" cx="186.4" cy="236.3" r="5.7"/>
		<g>
			<circle class="st6" cx="170.6" cy="212.6" r="35.3"/>
			<circle class="st4" cx="160.9" cy="190.1" r="12.7"/>
			<circle class="st4" cx="186.4" cy="235.3" r="5.7"/>
		</g>
		<path class="st6" d="M367.8,179.9c0,0-42,7.5-48.6,52.6c0,0,34.2-1.3,57.4,12.7l4.8-18.4c0,0-28.8-13.2-48.9-3.6
			c0,0,11.2-23.7,39.3-23.1L367.8,179.9z"/>
		<path class="st1" d="M398.3,334.8c-29.4-31.8,43.5-88,100.3-97.4C498.5,237.3,455,396.3,398.3,334.8z"/>
		<path class="st1" d="M103.5,308C71,303.5,47.8,335,54.3,379.3s81,57.8,81,57.8s-18-20.4-20.7-39.8c-2.7-19.4,9.4-29.8,12.9-47.3
			C133,322.5,119.8,310.2,103.5,308z"/>
		<g>
			<polyline class="st7" points="289.7,392.7 309,412 289.7,431.3 			"/>
			<polyline class="st7" points="229.3,431.3 209.9,412 229.3,392.7 			"/>
			<line class="st7" x1="279.3" y1="391.2" x2="240.6" y2="433.7"/>
		</g>
	</g>
</g>
</svg>
