<?xml version="1.0" encoding="utf-8"?>
<!-- Generator: Adobe Illustrator 21.1.0, SVG Export Plug-In . SVG Version: 6.00 Build 0)  -->
<svg version="1.1" id="Layer_1" xmlns="http://www.w3.org/2000/svg" xmlns:xlink="http://www.w3.org/1999/xlink" x="0px" y="0px"
	 viewBox="0 0 512 512" style="enable-background:new 0 0 512 512;" xml:space="preserve">
<style type="text/css">
	.st0{fill:#C91717;}
	.st1{fill:#F44336;}
	.st2{fill:#C1B49A;}
	.st3{fill:#FFFFFF;}
	.st4{fill:#F9E710;}
	.st5{fill:#404041;}
	.st6{fill:none;stroke:#FFFFFF;stroke-width:10;stroke-miterlimit:10;}
</style>
<g>
	<g>
		<path class="st0" d="M292,47.4c0,0-53.1,21.2-107.1-17.4c0,0-6.1,10.4,8,23.2c0,0,0.9,12.4,7.5,13.9c0,0-0.9,13.1,8.5,14.4
			c0,0-3.8,9.5,8.9,17.6C230.4,107.3,289.6,73.8,292,47.4z"/>
		<path class="st0" d="M193.7,48.6c0,0,53.1,21.2,107.1-17.4c0,0,6.1,10.4-8,23.2c0,0-0.9,12.4-7.5,13.9c0,0,0.9,13.1-8.5,14.4
			c0,0,3.8,9.5-8.9,17.6C255.2,108.5,196,75.1,193.7,48.6z"/>
	</g>
</g>
<path class="st1" d="M238.1,64.8c-91.1,0-189.4,74.7-169.7,220.8c16,119.1,69.7,193.8,169.7,193.8c100.1,0,153.7-74.6,169.7-193.8
	C427.5,139.5,329.2,64.8,238.1,64.8z"/>
<path class="st2" d="M239.1,270.6c-100.8,0-116.5,95.3-118.3,140.1c28.1,35.1,67.1,54.7,118.3,54.7s90.3-19.6,118.3-54.7
	C355.6,365.9,339.9,270.6,239.1,270.6z"/>
<circle class="st0" cx="149.7" cy="177.7" r="89.3"/>
<circle class="st3" cx="150.6" cy="177.7" r="66.6"/>
<circle class="st0" cx="328.4" cy="177.7" r="89.3"/>
<circle class="st3" cx="327.5" cy="177.7" r="66.6"/>
<polygon class="st4" points="239.1,210.5 218,232.2 239.1,262.8 260.1,232.2 "/>
<path class="st0" d="M168.4,437.1c-11.1,0-20.7,14.7-20.7,28.5c0,13.7,11.9,11.1,14,6.7c0,0,0.3,8,6.7,8s6.7-8,6.7-8
	c2,4.4,14,7,14-6.7C189.1,451.8,179.5,437.1,168.4,437.1z"/>
<path class="st0" d="M309.7,437.1c-11.1,0-20.7,14.7-20.7,28.5c0,13.7,11.9,11.1,14,6.7c0,0,0.3,8,6.7,8c6.4,0,6.7-8,6.7-8
	c2,4.4,14,7,14-6.7C330.3,451.8,320.7,437.1,309.7,437.1z"/>
<circle class="st3" cx="141" cy="156.2" r="12.7"/>
<circle class="st3" cx="166.5" cy="201.3" r="5.7"/>
<g>
	<circle class="st5" cx="150.6" cy="177.7" r="35.3"/>
	<circle class="st3" cx="141" cy="155.1" r="12.7"/>
	<circle class="st3" cx="166.5" cy="200.3" r="5.7"/>
</g>
<path class="st5" d="M347.9,145c0,0-42,7.5-48.6,52.6c0,0,34.2-1.3,57.4,12.7l4.8-18.4c0,0-28.8-13.2-48.9-3.6
	c0,0,11.2-23.7,39.3-23.1L347.9,145z"/>
<path class="st0" d="M378.3,299.8c-29.4-31.8,43.5-88,100.3-97.4C478.6,202.3,435.1,361.3,378.3,299.8z"/>
<path class="st0" d="M83.6,273c-32.5-4.4-55.7,27.1-49.2,71.4s81,57.8,81,57.8s-18-20.4-20.7-39.8s9.4-29.8,12.9-47.3
	C113.1,287.6,99.9,275.2,83.6,273z"/>
<g>
	<polyline class="st6" points="269.7,357.7 289,377 269.7,396.4 	"/>
	<polyline class="st6" points="209.4,396.4 190,377 209.4,357.7 	"/>
	<line class="st6" x1="259.4" y1="356.2" x2="220.7" y2="398.7"/>
</g>
</svg>
